<svg xmlns="http://www.w3.org/2000/svg" xmlns:xlink="http://www.w3.org/1999/xlink" width="132" height="32" viewBox="0 0 132 32">
    <defs>
        <linearGradient id="b" x1="16.239%" x2="82.617%" y1="22.266%" y2="77.738%">
            <stop offset="0%" stop-color="#65D0DB"/>
            <stop offset="100%" stop-color="#B3C2FF"/>
        </linearGradient>
        <path id="a" d="M.014 3.153c0 1.747 1.398 3.145 3.18 3.145 1.816 0 3.213-1.398 3.213-3.145S5.01.044 3.193.044C1.412.044.014 1.406.014 3.154z"/>
        <path id="c" d="M11.606.044v9.31c0 2.706-1.502 3.807-3.459 3.807-1.973 0-3.457-1.1-3.457-3.808V.044H.13v9.71c0 5.346 3.773 7.65 8.016 7.65 4.227 0 8-2.304 8-7.65V.044h-4.54z"/>
        <linearGradient id="d" x1="16.239%" x2="82.617%" y1="21.121%" y2="78.884%">
            <stop offset="0%" stop-color="#65D0DB"/>
            <stop offset="100%" stop-color="#B3C2FF"/>
        </linearGradient>
    </defs>
    <g fill="none" fill-rule="evenodd">
        <use fill="url(#b)" transform="translate(125.3 18.967)" xlink:href="#a"/>
        <path fill="#000" d="M122.593 7.246l-4.215 10.033-4.564-10.033h-5.19l7.28 14.98-4.04 8.918h4.911L127.54 7.246zM102.675 7.258l-3.53 4.926-3.528-4.926h-5.205l6.113 8.558-6.392 8.909h5.204l3.809-5.31 3.772 5.31h5.206l-6.393-8.943 6.114-8.524z"/>
        <g fill="#000">
            <path d="M81.64 6.768l.27.004c5.01.137 8.988 4.105 8.988 9.22l-.003.272c-.142 5.072-4.209 8.95-9.254 8.95l-.27-.003c-5.008-.138-8.954-4.106-8.954-9.22 0-5.205 4.088-9.223 9.224-9.223zm0 4.402l-.213.004c-2.551.104-4.503 2.064-4.503 4.817 0 2.83 2.062 4.821 4.717 4.821l.217-.004c2.583-.104 4.534-2.063 4.534-4.817l-.004-.227c-.108-2.709-2.13-4.594-4.747-4.594zM61.945 6.622l.269.003c4.905.138 8.8 4.024 8.8 9.032l-.004.272c-.14 4.966-4.124 8.763-9.065 8.763l-.268-.004c-4.904-.137-8.766-4.023-8.766-9.031 0-5.1 4.004-9.035 9.034-9.035zm0 4.312l-.215.005c-2.496.104-4.404 2.022-4.404 4.718 0 2.771 2.018 4.722 4.62 4.722l.217-.004c2.528-.105 4.436-2.024 4.436-4.718l-.004-.23c-.108-2.65-2.088-4.493-4.65-4.493z"/>
            <path d="M52.822 24.58h4.257V.193h-4.257z"/>
        </g>
        <g fill="#000">
            <path d="M38.5 11.806h12.387V7.548H38.501z"/>
            <path d="M41.984 24.58h4.645V2.128h-4.645z"/>
        </g>
        <use fill="#000" transform="translate(20.128 7.63)" xlink:href="#c"/>
        <path fill="url(#d)" d="M9.222.197l.27.004C14.5.338 18.48 4.305 18.48 9.42l-.003.273c-.142 5.071-4.21 8.95-9.255 8.95l-.268-.004C3.975 18.503.046 14.581 0 9.51v-.18C.047 4.168 4.117.197 9.222.197zm0 4.401l-.214.004c-2.55.104-4.502 2.064-4.502 4.818 0 2.83 2.061 4.82 4.716 4.82l.217-.004c2.584-.104 4.535-2.063 4.535-4.816l-.004-.228c-.107-2.709-2.13-4.594-4.748-4.594z" transform="translate(0 6.58)"/>
    </g>
</svg>
