<svg xmlns="http://www.w3.org/2000/svg" width="450" height="353" viewBox="0 0 450 353">
    <g fill="none" fill-rule="evenodd">
        <path fill="#D9F0FF" d="M116.605 32.647C186.778-26.206 302.94-3.31 376.06 83.788c66.529 79.25 75.896 185.209 22.919 247.208L155.993 331c-12.084-9.922-23.523-21.296-34.051-34.085C49.633 209.08 46.433 91.5 116.605 32.647z"/>
        <rect width="383" height="2" x="67" y="331" fill="#02348E" rx="1"/>
        <g transform="translate(143.5 89)">
            <path fill="#28747B" d="M12.5 117L177.5 98 256.5 114 88 135z"/>
            <path fill="#FE706A" d="M167.104 126.65c-1.764-20.347-1.747-34.463.05-42.346 2.697-11.824 6.951-21.493 15.083-24.016 8.133-2.523 10.517 3.378 9.093 9.292-1.424 5.913-14.94 8.324-10.375 56.432 3.044 32.072-1.573 32.285-13.85.639zM142.5 199.403C140.833 136.07 127 69.737 101 .403c-.94-2.505-4.44 6.662-10.5 27.5l-28 5-23-19c8.667 84.334 10.833 139.5 6.5 165.5s27.833 32.667 96.5 20z"/>
            <path fill="#4DC1CC" d="M12.5 117L12.5 242 90.5 264 255.5 242 255.5 117 90.5 133z"/>
            <path fill="#A3EBF2" d="M90.5 133L109.5 175 262.5 154 277 157.5 273.5 137.5 256.5 114z"/>
            <ellipse cx="68.5" cy="64.5" fill="#02348A" rx="3" ry="3.5" transform="rotate(-13 68.5 64.5)"/>
            <ellipse cx="94.5" cy="59.5" fill="#02348A" rx="3" ry="3.5" transform="rotate(-14 94.5 59.5)"/>
            <path fill="#02348A" d="M84.332 77.001l-5.052-3.9c-.581-.448-.689-1.283-.24-1.865.197-.256.482-.431.799-.493l6.772-1.316c.721-.14 1.42.33 1.56 1.052.066.34-.004.694-.195.985L84.332 77z"/>
            <path stroke="#02348A" stroke-linecap="round" d="M84.5 75.5c.333 6 1.667 9 4 9s4.333-1.167 6-3.5M84 76c1.303 5.852.883 9.045-1.262 9.58-2.145.535-4.266-.139-6.362-2.021"/>
            <path stroke="#02348E" stroke-linecap="round" stroke-linejoin="round" stroke-width="2" d="M91 255L90.5 134 109.5 175 232.5 158.25"/>
            <path fill="#A3EBF2" d="M12.5 117L0 161.5 12.032 166 78.032 189 90.5 133z"/>
            <path fill="#80D1D9" d="M273.5 137.5L262.5 154 277 157.5z"/>
            <path stroke="#02348E" stroke-linecap="round" stroke-linejoin="round" stroke-width="2" d="M80 180.5L78 189 14.25 166.75"/>
        </g>
        <path fill="#F4F5F7" d="M74.5 40c41.145 0 74.5 27.087 74.5 60.5 0 13.682-5.593 26.303-15.023 36.438 3.748 10.284 8.79 18.099 15.125 23.444-5.065 2.573-21.335-.514-34.53-8.87C103.001 157.518 89.251 161 74.5 161 33.355 161 0 133.913 0 100.5S33.355 40 74.5 40z"/>
        <text fill="#02348E" font-family="Chalkduster" font-size="30" transform="rotate(-8 75 94)">
            <tspan x="30" y="108">Purrr</tspan>
        </text>
    </g>
</svg>
